<?xml version="1.0" standalone="no"?>
<!DOCTYPE svg PUBLIC "-//W3C//DTD SVG 20010904//EN"
 "http://www.w3.org/TR/2001/REC-SVG-20010904/DTD/svg10.dtd">
<svg version="1.0" xmlns="http://www.w3.org/2000/svg"
 width="2048.000000pt" height="2048.000000pt" viewBox="0 0 2048.000000 2048.000000"
 preserveAspectRatio="xMidYMid meet">
<metadata>
Created by potrace 1.14, written by Peter Selinger 2001-2017
</metadata>
<g transform="translate(0.000000,2048.000000) scale(0.100000,-0.100000)"
fill="#000000" stroke="none">
<path d="M6222 17867 c-173 -414 -219 -874 -136 -1357 3 -19 19 -86 35 -149
181 -704 654 -1284 1299 -1593 233 -112 521 -201 718 -222 24 -2 47 -7 50 -11
4 -4 7 -77 8 -163 1 -144 10 -377 19 -462 1 -19 6 -73 9 -120 4 -47 9 -94 11
-105 3 -11 7 -42 9 -70 13 -120 48 -339 82 -505 14 -69 27 -132 29 -140 2 -8
8 -33 13 -55 6 -22 13 -51 16 -65 43 -212 253 -853 290 -885 7 -5 32 -57 56
-115 24 -58 72 -165 106 -238 35 -73 65 -141 69 -151 6 -19 -7 -19 -557 -18
l-563 2 -3 468 -2 467 -3328 0 -3327 0 1 -4977 c1 -2738 2 -4980 3 -4983 0 -3
1496 -5 3324 -5 l3322 0 5 465 5 465 5710 -1 c3141 0 5715 2 5722 4 9 3 12
777 12 3303 l0 3300 65 99 c189 287 334 585 445 916 51 152 119 396 134 484 3
14 12 63 20 110 20 109 25 142 33 215 3 33 7 71 10 85 25 159 25 699 -1 875
-2 17 -7 48 -9 70 -45 365 -176 821 -331 1150 -26 55 -55 118 -66 140 -75 164
-259 458 -402 645 -134 175 -214 265 -363 414 -420 420 -907 730 -1468 935
-289 106 -608 186 -861 216 -27 4 -60 8 -73 10 -77 13 -237 20 -437 20 -285 0
-445 -12 -645 -45 -30 -5 -71 -12 -90 -15 -156 -25 -383 -83 -580 -149 -469
-155 -896 -391 -1286 -712 -279 -230 -607 -591 -788 -869 -117 -179 -281 -479
-326 -595 -7 -19 -20 -42 -27 -50 -8 -8 -55 -76 -106 -151 -90 -133 -108 -158
-195 -267 -168 -209 -391 -430 -637 -631 -286 -233 -765 -500 -1122 -626 l-51
-18 -34 34 c-385 401 -692 900 -884 1438 -49 137 -117 365 -140 469 -18 81
-62 334 -66 381 l-3 34 90 22 c538 132 1009 427 1339 840 287 360 467 782 527
1240 20 149 15 573 -7 642 -17 52 -27 63 -61 63 -30 0 -37 -6 -86 -82 -149
-229 -313 -389 -551 -537 -214 -134 -556 -267 -936 -365 -211 -54 -384 -77
-600 -79 -453 -3 -921 104 -1300 299 -493 253 -846 669 -1010 1189 -45 142
-46 145 -74 145 -21 0 -29 -11 -54 -73z m1234 -5809 c3 -3 6 -143 7 -311 l2
-305 -2650 -1 c-1457 0 -2665 0 -2683 -1 l-32 0 2 -4047 3 -4048 2677 0 2678
0 1 -110 c0 -128 0 -341 0 -437 l-1 -66 -3009 0 -3008 0 0 4662 c0 2563 3
4663 7 4666 11 7 5999 4 6006 -2z"/>
<path d="M1181 16830 c-9 -6 -10 -3919 -2 -3921 3 -1 619 -2 1368 -3 1205 -1
1362 1 1365 14 3 13 2 998 -1 1025 -1 7 -272 10 -801 10 -706 0 -800 2 -800
15 -1 8 -1 655 -2 1438 0 782 -3 1423 -7 1423 -21 4 -1114 3 -1120 -1z"/>
</g>
</svg>
